HIERARCHY
ROOT mixamorig:Hips
{
	OFFSET 0.000000 104.274902 0.000000
	CHANNELS 6 Xposition Yposition Zposition Xrotation Yrotation Zrotation
	JOINT mixamorig:Spine
	{
		OFFSET 0.000000 10.181549 0.131524
		CHANNELS 6 Xposition Yposition Zposition Xrotation Yrotation Zrotation
		JOINT mixamorig:Spine1
		{
			OFFSET 0.000000 9.893990 -1.470706
			CHANNELS 3 Xrotation Yrotation Zrotation
			JOINT mixamorig:Spine2
			{
				OFFSET 0.000000 9.220787 -1.370636
				CHANNELS 3 Xrotation Yrotation Zrotation
				JOINT mixamorig:Neck
				{
					OFFSET 0.000000 16.740372 -2.049023
					CHANNELS 6 Xposition Yposition Zposition Xrotation Yrotation Zrotation
					JOINT mixamorig:Head
					{
						OFFSET 0.000000 9.617859 1.684975
						CHANNELS 6 Xposition Yposition Zposition Xrotation Yrotation Zrotation
						JOINT mixamorig:HeadTop_End
						{
							OFFSET 0.000000 22.037369 7.501070
							CHANNELS 6 Xposition Yposition Zposition Xrotation Yrotation Zrotation
							End Site
							{
								OFFSET 0.000000 23.106567 -2.828246
							}
						}
					}
				}
				JOINT mixamorig:RightShoulder
				{
					OFFSET -4.570000 11.014862 -2.160841
					CHANNELS 6 Xposition Yposition Zposition Xrotation Yrotation Zrotation
					JOINT mixamorig:RightArm
					{
						OFFSET -10.592869 -0.524796 -2.232105
						CHANNELS 3 Xrotation Yrotation Zrotation
						JOINT mixamorig:RightForeArm
						{
							OFFSET -27.841499 0.000000 0.000000
							CHANNELS 3 Xrotation Yrotation Zrotation
							JOINT mixamorig:RightHand
							{
								OFFSET -28.328800 0.000000 0.000000
								CHANNELS 3 Xrotation Yrotation Zrotation
								JOINT mixamorig:RightHandThumb1
								{
									OFFSET -2.464798 -1.573990 2.681910
									CHANNELS 6 Xposition Yposition Zposition Xrotation Yrotation Zrotation
									JOINT mixamorig:RightHandThumb2
									{
										OFFSET -3.244789 -1.873367 1.873378
										CHANNELS 3 Xrotation Yrotation Zrotation
										JOINT mixamorig:RightHandThumb3
										{
											OFFSET -2.646255 -1.527817 1.527816
											CHANNELS 3 Xrotation Yrotation Zrotation
											JOINT mixamorig:RightHandThumb4
											{
												OFFSET -1.994583 -1.151581 1.151575
												CHANNELS 3 Xrotation Yrotation Zrotation
												End Site
												{
													OFFSET -1.860176 -1.142715 1.365483
												}
											}
										}
									}
								}
								JOINT mixamorig:RightHandIndex1
								{
									OFFSET -9.108299 -0.517883 2.259803
									CHANNELS 6 Xposition Yposition Zposition Xrotation Yrotation Zrotation
									JOINT mixamorig:RightHandIndex2
									{
										OFFSET -3.700005 0.000000 0.000000
										CHANNELS 3 Xrotation Yrotation Zrotation
										JOINT mixamorig:RightHandIndex3
										{
											OFFSET -2.849998 0.000000 0.000000
											CHANNELS 3 Xrotation Yrotation Zrotation
											JOINT mixamorig:RightHandIndex4
											{
												OFFSET -2.772202 0.000000 0.000000
												CHANNELS 3 Xrotation Yrotation Zrotation
												End Site
												{
													OFFSET -2.772202 0.000000 -0.000484
												}
											}
										}
									}
								}
								JOINT mixamorig:RightHandMiddle1
								{
									OFFSET -9.532501 0.000000 0.000000
									CHANNELS 6 Xposition Yposition Zposition Xrotation Yrotation Zrotation
									JOINT mixamorig:RightHandMiddle2
									{
										OFFSET -3.699997 0.000000 0.000000
										CHANNELS 3 Xrotation Yrotation Zrotation
										JOINT mixamorig:RightHandMiddle3
										{
											OFFSET -2.950005 0.000000 0.000000
											CHANNELS 3 Xrotation Yrotation Zrotation
											JOINT mixamorig:RightHandMiddle4
											{
												OFFSET -2.946602 0.000000 0.000000
												CHANNELS 3 Xrotation Yrotation Zrotation
												End Site
												{
													OFFSET -2.946594 0.000000 -0.000982
												}
											}
										}
									}
								}
								JOINT mixamorig:RightHandRing1
								{
									OFFSET -9.103600 -0.043106 -1.865100
									CHANNELS 6 Xposition Yposition Zposition Xrotation Yrotation Zrotation
									JOINT mixamorig:RightHandRing2
									{
										OFFSET -3.379303 0.000000 0.000000
										CHANNELS 3 Xrotation Yrotation Zrotation
										JOINT mixamorig:RightHandRing3
										{
											OFFSET -2.889702 0.000000 0.000000
											CHANNELS 3 Xrotation Yrotation Zrotation
											JOINT mixamorig:RightHandRing4
											{
												OFFSET -2.638794 0.000000 0.000000
												CHANNELS 3 Xrotation Yrotation Zrotation
												End Site
												{
													OFFSET -2.638794 0.000000 0.004219
												}
											}
										}
									}
								}
								JOINT mixamorig:RightHandPinky1
								{
									OFFSET -8.076698 -0.486725 -3.806297
									CHANNELS 6 Xposition Yposition Zposition Xrotation Yrotation Zrotation
									JOINT mixamorig:RightHandPinky2
									{
										OFFSET -3.600006 0.000000 0.000000
										CHANNELS 3 Xrotation Yrotation Zrotation
										JOINT mixamorig:RightHandPinky3
										{
											OFFSET -2.099998 0.000000 0.000000
											CHANNELS 3 Xrotation Yrotation Zrotation
											JOINT mixamorig:RightHandPinky4
											{
												OFFSET -2.115799 0.000000 0.000000
												CHANNELS 3 Xrotation Yrotation Zrotation
												End Site
												{
													OFFSET -2.115799 0.000000 0.000174
												}
											}
										}
									}
								}
							}
						}
					}
				}
				JOINT mixamorig:LeftShoulder
				{
					OFFSET 4.570400 11.014664 -2.160817
					CHANNELS 6 Xposition Yposition Zposition Xrotation Yrotation Zrotation
					JOINT mixamorig:LeftArm
					{
						OFFSET 10.592365 -0.524597 -2.232113
						CHANNELS 3 Xrotation Yrotation Zrotation
						JOINT mixamorig:LeftForeArm
						{
							OFFSET 27.841499 0.000000 0.000000
							CHANNELS 3 Xrotation Yrotation Zrotation
							JOINT mixamorig:LeftHand
							{
								OFFSET 28.328804 0.000000 0.000000
								CHANNELS 3 Xrotation Yrotation Zrotation
								JOINT mixamorig:LeftHandThumb1
								{
									OFFSET 2.466095 -1.576202 2.681697
									CHANNELS 6 Xposition Yposition Zposition Xrotation Yrotation Zrotation
									JOINT mixamorig:LeftHandThumb2
									{
										OFFSET 3.243317 -1.872528 1.872528
										CHANNELS 3 Xrotation Yrotation Zrotation
										JOINT mixamorig:LeftHandThumb3
										{
											OFFSET 2.647881 -1.528763 1.528755
											CHANNELS 3 Xrotation Yrotation Zrotation
											JOINT mixamorig:LeftHandThumb4
											{
												OFFSET 1.998924 -1.154068 1.154079
												CHANNELS 3 Xrotation Yrotation Zrotation
												End Site
												{
													OFFSET 1.884041 -1.149155 1.337651
												}
											}
										}
									}
								}
								JOINT mixamorig:LeftHandIndex1
								{
									OFFSET 9.109299 -0.518005 2.259899
									CHANNELS 6 Xposition Yposition Zposition Xrotation Yrotation Zrotation
									JOINT mixamorig:LeftHandIndex2
									{
										OFFSET 3.699997 0.000000 0.000000
										CHANNELS 3 Xrotation Yrotation Zrotation
										JOINT mixamorig:LeftHandIndex3
										{
											OFFSET 2.849998 0.000000 0.000000
											CHANNELS 3 Xrotation Yrotation Zrotation
											JOINT mixamorig:LeftHandIndex4
											{
												OFFSET 2.774902 0.000000 0.000000
												CHANNELS 3 Xrotation Yrotation Zrotation
												End Site
												{
													OFFSET 2.774902 0.000000 -0.000072
												}
											}
										}
									}
								}
								JOINT mixamorig:LeftHandMiddle1
								{
									OFFSET 9.533394 0.000000 0.000000
									CHANNELS 6 Xposition Yposition Zposition Xrotation Yrotation Zrotation
									JOINT mixamorig:LeftHandMiddle2
									{
										OFFSET 3.700005 0.000000 0.000000
										CHANNELS 3 Xrotation Yrotation Zrotation
										JOINT mixamorig:LeftHandMiddle3
										{
											OFFSET 2.949997 0.000000 0.000000
											CHANNELS 3 Xrotation Yrotation Zrotation
											JOINT mixamorig:LeftHandMiddle4
											{
												OFFSET 2.952904 0.000000 0.000000
												CHANNELS 3 Xrotation Yrotation Zrotation
												End Site
												{
													OFFSET 2.952896 0.000000 0.000165
												}
											}
										}
									}
								}
								JOINT mixamorig:LeftHandRing1
								{
									OFFSET 9.104500 -0.042999 -1.865100
									CHANNELS 6 Xposition Yposition Zposition Xrotation Yrotation Zrotation
									JOINT mixamorig:LeftHandRing2
									{
										OFFSET 3.149994 0.000000 0.000000
										CHANNELS 3 Xrotation Yrotation Zrotation
										JOINT mixamorig:LeftHandRing3
										{
											OFFSET 2.950005 0.000000 0.000000
											CHANNELS 3 Xrotation Yrotation Zrotation
											JOINT mixamorig:LeftHandRing4
											{
												OFFSET 2.644295 0.000000 0.000000
												CHANNELS 3 Xrotation Yrotation Zrotation
												End Site
												{
													OFFSET 2.644302 0.000000 0.000083
												}
											}
										}
									}
								}
								JOINT mixamorig:LeftHandPinky1
								{
									OFFSET 8.077797 -0.486893 -3.806301
									CHANNELS 6 Xposition Yposition Zposition Xrotation Yrotation Zrotation
									JOINT mixamorig:LeftHandPinky2
									{
										OFFSET 3.599998 0.000000 0.000000
										CHANNELS 3 Xrotation Yrotation Zrotation
										JOINT mixamorig:LeftHandPinky3
										{
											OFFSET 2.099998 0.000000 0.000000
											CHANNELS 3 Xrotation Yrotation Zrotation
											JOINT mixamorig:LeftHandPinky4
											{
												OFFSET 2.125504 0.000000 0.000000
												CHANNELS 3 Xrotation Yrotation Zrotation
												End Site
												{
													OFFSET 2.125504 0.000000 -0.001254
												}
											}
										}
									}
								}
							}
						}
					}
				}
			}
		}
	}
	JOINT mixamorig:RightUpLeg
	{
		OFFSET -8.207800 -6.751701 -1.599544
		CHANNELS 6 Xposition Yposition Zposition Xrotation Yrotation Zrotation
		JOINT mixamorig:RightLeg
		{
			OFFSET 0.000000 -44.370155 0.345934
			CHANNELS 3 Xrotation Yrotation Zrotation
			JOINT mixamorig:RightFoot
			{
				OFFSET 0.000000 -44.423664 -3.043536
				CHANNELS 3 Xrotation Yrotation Zrotation
				JOINT mixamorig:RightToeBase
				{
					OFFSET 0.000000 -8.728685 10.710592
					CHANNELS 3 Xrotation Yrotation Zrotation
					JOINT mixamorig:RightToe_End
					{
						OFFSET 0.000000 -0.000664 9.278099
						CHANNELS 3 Xrotation Yrotation Zrotation
						End Site
						{
							OFFSET 0.000000 -0.000664 9.278101
						}
					}
				}
			}
		}
	}
	JOINT mixamorig:LeftUpLeg
	{
		OFFSET 8.207800 -6.751701 -1.599544
		CHANNELS 6 Xposition Yposition Zposition Xrotation Yrotation Zrotation
		JOINT mixamorig:LeftLeg
		{
			OFFSET 0.000000 -44.370049 0.346940
			CHANNELS 3 Xrotation Yrotation Zrotation
			JOINT mixamorig:LeftFoot
			{
				OFFSET 0.000000 -44.423603 -3.044389
				CHANNELS 3 Xrotation Yrotation Zrotation
				JOINT mixamorig:LeftToeBase
				{
					OFFSET 0.000000 -8.728686 10.710592
					CHANNELS 3 Xrotation Yrotation Zrotation
					JOINT mixamorig:LeftToe_End
					{
						OFFSET 0.000000 -0.000680 9.278100
						CHANNELS 3 Xrotation Yrotation Zrotation
						End Site
						{
							OFFSET 0.000000 -0.000680 9.278100
						}
					}
				}
			}
		}
	}
}
MOTION
Frames: 4
Frame Time: 0.033333
-2.097189 101.787231 -0.099918 -2.900023 39.357244 3.778305 -0.000000 10.181549 0.131525 4.283949 4.955406 7.149358 -0.662100 0.646066 -1.547828 -0.640459 0.642251 -1.558607 0.000003 16.740383 -2.049021 -2.118234 2.639170 2.267091 -0.000004 9.617848 1.684976 13.858415 16.638928 -9.016099 -0.000000 22.037369 7.501075 0.000000 0.000003 -0.000001 -4.569997 11.014886 -2.160842 2.359409 35.352588 3.602586 -5.475883 49.368583 5.576066 0.000150 115.602386 -0.000119 8.852018 -10.159710 10.647421 -2.464805 -1.573988 2.681911 -2.032669 -12.088964 -7.927925 5.749277 -21.267920 -1.054457 -1.273748 0.137305 -2.094865 -0.000002 0.000003 -0.000001 -9.108306 -0.517852 2.259803 0.260871 -1.890338 15.713325 0.220236 -1.739505 14.430209 0.093786 -1.140434 9.401334 0.000001 0.000000 0.000003 -9.532496 0.000032 0.000002 0.245498 -1.834856 15.240283 0.348747 -2.178460 18.188266 0.249201 -1.848348 15.355459 0.000002 0.000003 -0.000001 -9.103603 -0.043096 -1.865098 0.354344 -2.195419 18.334939 0.568136 -2.757488 23.279670 0.494473 -2.579750 21.697701 0.000002 0.000003 0.000000 -8.076714 -0.486717 -3.806299 0.686157 -3.016723 25.622452 0.866898 -3.367181 28.867771 0.740846 -3.128032 26.642797 -0.000001 -0.000000 0.000001 4.570401 11.014668 -2.160817 1.515328 -13.327022 0.948783 56.876683 -28.131131 16.722060 -0.000004 -30.817390 -0.000001 -14.947206 15.315811 6.575570 2.466100 -1.576211 2.681689 -2.107747 4.876290 12.292416 4.685181 17.127432 1.425216 -0.579459 1.575001 2.538710 0.000001 0.000002 -0.000001 9.109306 -0.518015 2.259889 0.014900 0.453841 -3.763374 0.032026 0.664820 -5.517651 0.023924 0.574810 -4.768694 -0.000002 -0.000000 0.000001 9.533411 0.000004 -0.000010 0.080758 1.053757 -8.766731 0.132811 1.348539 -11.248740 0.131567 1.342408 -11.196533 -0.000001 0.000001 -0.000002 9.104503 -0.043013 -1.865108 0.265853 1.898580 -15.942650 0.374930 2.245279 -18.958614 0.383232 2.269322 -19.169677 -0.000001 0.000004 -0.000002 8.077798 -0.486891 -3.806305 2.551919 6.730698 -26.331597 0.704444 -1.037673 -26.407601 0.680863 2.990379 -25.649659 0.000000 -0.000001 0.000001 -8.207802 -6.751715 -1.599544 -1.576089 -5.527209 -7.825762 18.049113 -8.738164 -3.784724 -13.108797 -2.355562 8.205379 -0.016915 -0.000000 0.000003 -0.000000 -0.000000 0.000000 8.207799 -6.751709 -1.599542 -16.620352 15.920980 9.101238 20.897975 7.863248 -2.906076 -1.015921 10.385216 -8.775238 0.000004 -0.000004 -0.000000 -0.000000 0.000000 0.000000 
-1.981893 101.916054 -0.122835 -1.746894 37.751849 3.263621 0.000001 10.181556 0.131524 3.166784 2.883451 7.758101 -0.146306 0.377979 -1.973042 -0.131447 0.368325 -1.975974 0.000003 16.740351 -2.049019 -3.728068 3.273746 3.236661 0.000002 9.617835 1.684981 14.908998 20.986771 -11.053502 0.000000 22.037338 7.501075 0.000000 -0.000001 0.000000 -4.569999 11.014856 -2.160840 2.299468 33.920335 3.512964 -16.063316 46.300729 9.604891 0.000152 115.909963 -0.000129 8.751585 -8.614970 8.875045 -2.464797 -1.573972 2.681905 -2.032668 -12.088965 -7.927924 5.749275 -21.267911 -1.054457 -1.273751 0.137309 -2.094866 -0.000006 0.000003 0.000000 -9.108298 -0.517860 2.259799 0.280479 -1.958661 16.297212 0.240284 -1.815594 15.076497 0.112089 -1.245985 10.280718 -0.000002 0.000003 -0.000002 -9.532498 0.000014 -0.000003 0.264110 -1.901806 15.811104 0.374017 -2.253870 18.841743 0.277902 -1.949822 16.221517 0.000001 -0.000001 0.000002 -9.103617 -0.043099 -1.865107 0.381322 -2.275142 19.026580 0.602435 -2.835780 23.982681 0.536330 -2.682469 22.609605 0.000005 0.000005 -0.000002 -8.076700 -0.486722 -3.806301 0.738167 -3.122709 26.593753 0.910408 -3.444784 29.599998 0.796157 -3.235745 27.639195 0.000000 -0.000000 -0.000003 4.570399 11.014660 -2.160816 1.659815 -14.952864 0.850932 53.488031 -30.359132 3.239128 -0.000005 -25.105971 0.000005 -19.140697 22.799311 12.338462 2.466100 -1.576242 2.681695 -2.107744 4.876294 12.292416 4.685176 17.127434 1.425219 -0.579459 1.575003 2.538711 0.000003 0.000001 0.000003 9.109303 -0.518017 2.259897 0.005271 0.270208 -2.239562 0.013108 0.425611 -3.529117 0.011574 0.399923 -3.315663 0.000001 -0.000000 -0.000002 9.533403 0.000008 -0.000005 0.053971 0.862184 -7.163531 0.088502 1.102748 -9.177945 0.095088 1.142840 -9.514760 -0.000000 -0.000001 -0.000001 9.104509 -0.042999 -1.865104 0.201914 1.658503 -13.882066 0.288338 1.975544 -16.607841 0.312451 2.054574 -17.293441 -0.000001 0.000003 0.000000 8.077798 -0.486898 -3.806302 2.204659 6.494771 -23.316661 0.571097 -1.322153 -23.806793 0.584830 2.781783 -23.742306 0.000000 -0.000001 0.000000 -8.207802 -6.751698 -1.599544 -2.291341 -5.501401 -8.345997 17.080954 -8.604593 -4.080273 -11.641039 -5.406475 8.581551 -0.019355 0.000003 0.000003 0.000000 0.000001 0.000000 8.207798 -6.751704 -1.599543 -16.139616 15.706273 8.539714 19.213409 8.238388 -2.896785 -0.245750 11.811916 -7.493165 -0.000009 -0.000006 0.000007 0.000000 0.000001 0.000001 
-1.767308 102.085876 0.013770 -0.468697 35.227039 2.561094 0.000000 10.181555 0.131525 1.935656 0.938289 8.178060 0.383618 0.123631 -2.290215 0.389006 0.109831 -2.289965 0.000001 16.740339 -2.049021 -5.163986 3.921295 4.379671 -0.000000 9.617835 1.684973 15.535144 25.715162 -12.860180 0.000000 22.037384 7.501068 0.000000 -0.000001 0.000000 -4.570002 11.014842 -2.160842 2.238922 33.016223 3.537319 -23.310792 42.250444 9.387798 0.000123 118.595211 -0.000095 3.948038 -11.709133 7.047405 -2.464800 -1.573981 2.681910 -2.032670 -12.088969 -7.927929 5.749276 -21.267916 -1.054458 -1.273751 0.137309 -2.094864 -0.000003 -0.000002 -0.000001 -9.108290 -0.517860 2.259801 0.275166 -1.940384 16.140814 0.252770 -1.861302 15.465701 0.123906 -1.309382 10.810328 0.000000 0.000000 -0.000001 -9.532493 0.000016 0.000000 0.266042 -1.908588 15.869089 0.389574 -2.298922 19.233369 0.298393 -2.018840 16.813038 0.000001 -0.000001 -0.000001 -9.103597 -0.043079 -1.865103 0.392900 -2.308415 19.316045 0.628221 -2.892962 24.498562 0.570780 -2.763598 23.334518 0.000000 -0.000001 -0.000002 -8.076684 -0.486727 -3.806297 0.770356 -3.186084 27.178752 0.949730 -3.512984 30.248039 0.846659 -3.330265 28.521101 0.000002 0.000001 -0.000001 4.570400 11.014632 -2.160817 1.596756 -14.189099 0.944481 47.829393 -31.960204 -12.811845 -0.000003 -20.041295 -0.000014 -18.335626 21.790107 15.272042 2.466079 -1.576207 2.681696 -2.107747 4.876293 12.292420 4.685174 17.127435 1.425212 -0.579465 1.575001 2.538710 -0.000001 0.000001 0.000003 9.109298 -0.518019 2.259900 0.001593 0.148245 -1.228463 0.006632 0.303206 -2.513250 0.006974 0.310454 -2.573337 0.000000 -0.000001 0.000001 9.533387 0.000009 0.000002 0.040609 0.748377 -6.213677 0.066118 0.953972 -7.930999 0.075931 1.021925 -8.499883 -0.000002 -0.000002 -0.000002 9.104512 -0.043017 -1.865096 0.171018 1.528191 -12.771336 0.236327 1.792025 -15.025619 0.267519 1.904365 -15.992692 -0.000001 -0.000002 0.000002 8.077796 -0.486905 -3.806302 2.032246 6.367340 -21.777491 0.478056 -1.543332 -21.820764 0.516199 2.620408 -22.286132 -0.000000 -0.000008 -0.000000 -8.207801 -6.751696 -1.599544 -3.083801 -5.819945 -9.005248 15.772729 -8.605154 -4.086002 -9.794894 -8.319431 8.653670 -0.022254 0.000003 -0.000003 -0.000000 -0.000000 0.000000 8.207798 -6.751684 -1.599543 -15.296864 15.535445 7.932753 16.978926 8.720440 -2.619392 0.510791 14.247622 -5.501769 -0.000112 0.000000 0.000003 -0.000000 -0.000002 -0.000000 
-1.470348 102.252190 0.320380 0.452409 31.819283 1.902673 0.000001 10.181540 0.131523 1.317105 -0.300286 8.130177 0.520825 -0.041224 -2.185763 0.518944 -0.053997 -2.185876 0.000001 16.740360 -2.049023 -5.754404 4.613605 5.142241 0.000002 9.617857 1.684979 16.158742 30.096347 -14.311160 -0.000000 22.037415 7.501071 0.000000 0.000001 -0.000000 -4.569999 11.014860 -2.160843 2.201315 32.893255 3.650385 -30.436983 35.974309 7.989218 0.000129 124.917535 -0.000098 -7.004964 -19.252603 5.319337 -2.464814 -1.573987 2.681907 -2.032670 -12.088964 -7.927927 5.749278 -21.267920 -1.054457 -1.273749 0.137304 -2.094865 -0.000003 -0.000000 -0.000001 -9.108295 -0.517850 2.259801 0.258460 -1.881745 15.639880 0.249397 -1.849065 15.361468 0.120683 -1.292412 10.668472 -0.000001 -0.000001 0.000002 -9.532497 0.000018 -0.000000 0.255457 -1.870991 15.548236 0.388718 -2.296439 19.211862 0.300097 -2.024512 16.861644 0.000000 -0.000000 0.000002 -9.103601 -0.043093 -1.865100 0.384360 -2.283919 19.102745 0.635968 -2.909887 24.651700 0.584926 -2.796130 23.626135 -0.000000 0.000001 0.000004 -8.076710 -0.486716 -3.806300 0.761671 -3.169135 27.022064 0.973788 -3.553836 30.638333 0.877762 -3.386805 29.052254 -0.000000 0.000000 -0.000001 4.570399 11.014657 -2.160818 1.268006 -10.503505 1.261245 42.818326 -33.130820 -28.988976 -0.000004 -17.205964 -0.000001 -13.373136 14.976713 16.175792 2.466090 -1.576223 2.681691 -2.107750 4.876294 12.292420 4.685174 17.127434 1.425218 -0.579460 1.575003 2.538713 0.000005 0.000006 -0.000001 9.109302 -0.518025 2.259903 0.000123 -0.040547 0.335938 0.003561 0.221916 -1.839172 0.004560 0.251065 -2.080781 -0.000000 -0.000000 -0.000002 9.533403 0.000011 0.000001 0.027162 0.612320 -5.080783 0.052785 0.852821 -7.085271 0.065251 0.947733 -7.878527 0.000001 0.000002 -0.000003 9.104514 -0.043016 -1.865092 0.146357 1.414993 -11.810858 0.208393 1.684572 -14.104894 0.244308 1.821491 -15.278785 0.000000 -0.000002 -0.000001 8.077793 -0.486900 -3.806304 1.919802 6.280248 -20.756568 0.433478 -1.657541 -20.806189 0.482731 2.537288 -21.542348 -0.000000 -0.000003 -0.000000 -8.207802 -6.751724 -1.599544 -3.669220 -6.530889 -9.716839 14.186323 -8.827619 -3.708499 -7.953564 -9.299554 8.731195 -0.022183 0.000002 0.000003 -0.000000 -0.000000 0.000000 8.207801 -6.751716 -1.599544 -14.138095 15.419949 7.511448 14.926356 9.221827 -2.017224 1.118637 17.626883 -3.998783 -0.000059 -0.000024 -0.000002 -0.000000 0.000001 0.000000 
